<svg width="40" height="33" viewBox="0 0 40 33" fill="none" xmlns="http://www.w3.org/2000/svg">
<path d="M3.5625 30.5625C6.22917 29.4375 8.52083 27.6875 10.4375 25.3125C12.3542 22.8958 13.3125 20.4583 13.3125 18C13.3125 16.9583 13.1875 16.0625 12.9375 15.3125C11.4792 16.4375 9.89583 17 8.1875 17C5.85417 17 3.89583 16.2708 2.3125 14.8125C0.770833 13.3125 0 11.3125 0 8.8125C0 6.47917 0.791667 4.54167 2.375 3C3.95833 1.41667 5.89583 0.625 8.1875 0.625C11.4792 0.625 14 1.97917 15.75 4.6875C17.2083 6.9375 17.9375 9.75 17.9375 13.125C17.9375 17.4167 16.8333 21.2708 14.625 24.6875C12.4583 28.0625 9.16667 30.7917 4.75 32.875L3.5625 30.5625ZM25.3125 30.5625C27.9792 29.4375 30.2708 27.6875 32.1875 25.3125C34.1042 22.8958 35.0625 20.4583 35.0625 18C35.0625 16.9583 34.9375 16.0625 34.6875 15.3125C33.2708 16.4375 31.6875 17 29.9375 17C27.6458 17 25.7083 16.2708 24.125 14.8125C22.5417 13.3125 21.75 11.3125 21.75 8.8125C21.75 7.27083 22.125 5.875 22.875 4.625C23.625 3.375 24.625 2.39583 25.875 1.6875C27.125 0.979167 28.4792 0.625 29.9375 0.625C33.2292 0.625 35.75 1.97917 37.5 4.6875C38.9583 6.9375 39.6875 9.75 39.6875 13.125C39.6875 17.4167 38.5833 21.2708 36.375 24.6875C34.2083 28.0625 30.9167 30.7917 26.5 32.875L25.3125 30.5625Z" fill="#F2F2EF"/>
</svg>
