<svg width="54" height="48" viewBox="0 0 54 48" fill="none" xmlns="http://www.w3.org/2000/svg">
<path opacity="0.6" d="M47.6483 5.05798e-06H6.35167C5.51726 -0.00104504 4.69084 0.161423 3.91974 0.478105C3.14865 0.794788 2.44803 1.25946 1.85801 1.84551C1.26799 2.43156 0.80016 3.12747 0.481334 3.89338C0.162508 4.65929 -0.00105211 5.48015 5.09248e-06 6.30895V6.76423C0.00157701 8.43699 0.671281 10.0408 1.86211 11.2236C3.05293 12.4064 4.66759 13.0716 6.35167 13.0732C8.03575 13.0716 9.65037 12.4064 10.8412 11.2236C12.032 10.0408 12.7017 8.43698 12.7033 6.76423V6.20054H9.32014V6.76423C9.31107 7.54144 8.99469 8.28395 8.43931 8.83152C7.88393 9.37909 7.13406 9.68781 6.35153 9.69106C5.57131 9.68696 4.82423 9.37729 4.27251 8.82929C3.7208 8.28128 3.40903 7.53921 3.40491 6.76423V6.30895C3.40903 5.53397 3.7208 4.79189 4.27251 4.24389C4.82423 3.69589 5.57131 3.38621 6.35153 3.38212H14.7769V41.7127L27.0436 48L39.2449 41.7344V3.38212H47.6483C48.4308 3.38539 49.1807 3.69412 49.736 4.24168C50.2914 4.78925 50.6077 5.53175 50.6168 6.30895V6.76423C50.6077 7.54143 50.2914 8.28392 49.736 8.83149C49.1807 9.37906 48.4308 9.68779 47.6483 9.69106C46.8681 9.68694 46.121 9.37725 45.5693 8.82926C45.0176 8.28126 44.7058 7.5392 44.7017 6.76423V6.20054H41.2967V6.76423C41.2983 8.43698 41.9679 10.0408 43.1588 11.2236C44.3496 12.4064 45.9643 13.0716 47.6483 13.0732C49.3324 13.0716 50.9471 12.4064 52.1379 11.2236C53.3287 10.0408 53.9984 8.43698 54 6.76423V6.30895C54.001 5.48015 53.8375 4.65929 53.5186 3.89338C53.1998 3.12747 52.732 2.43156 52.142 1.84552C51.552 1.25947 50.8513 0.794793 50.0803 0.47811C49.3092 0.161427 48.4827 -0.00104218 47.6483 5.05798e-06ZM21.2377 41.2358L18.1164 39.6313V3.4255H21.2377V41.2358ZM29.3136 42.9485L26.9782 44.1843L24.6427 42.9485V3.42548H29.3136V42.9485ZM35.8399 39.6314L32.7187 41.2359V3.42559H35.8399V39.6314Z" fill="#5C5138"/>
</svg>
