<svg width="20" height="21" viewBox="0 0 20 21" fill="none" xmlns="http://www.w3.org/2000/svg">
<g clip-path="url(#clip0_140_635)">
<g clip-path="url(#clip1_140_635)">
<path opacity="0.4" d="M8 14.5898H12C12.2833 14.5898 12.521 14.4938 12.713 14.3018C12.905 14.1098 13.0007 13.8725 13 13.5898V11.5898H11V12.5898H9V8.58984H11V9.58984H13V7.58984C13 7.30651 12.904 7.06917 12.712 6.87784C12.52 6.68651 12.2827 6.59051 12 6.58984H8C7.71667 6.58984 7.47933 6.68584 7.288 6.87784C7.09667 7.06984 7.00067 7.30717 7 7.58984V13.5898C7 13.8731 7.096 14.1108 7.288 14.3028C7.48 14.4948 7.71733 14.5905 8 14.5898ZM10 20.5898C8.61667 20.5898 7.31667 20.3271 6.1 19.8018C4.88334 19.2765 3.825 18.5641 2.925 17.6648C2.025 16.7655 1.31267 15.7071 0.788001 14.4898C0.263335 13.2725 0.000667933 11.9725 1.26582e-06 10.5898C-0.000665401 9.20717 0.262001 7.90717 0.788001 6.68984C1.314 5.47251 2.02633 4.41417 2.925 3.51484C3.82367 2.61551 4.882 1.90317 6.1 1.37784C7.318 0.852511 8.618 0.589844 10 0.589844C11.382 0.589844 12.682 0.852511 13.9 1.37784C15.118 1.90317 16.1763 2.61551 17.075 3.51484C17.9737 4.41417 18.6863 5.47251 19.213 6.68984C19.7397 7.90717 20.002 9.20717 20 10.5898C19.998 11.9725 19.7353 13.2725 19.212 14.4898C18.6887 15.7071 17.9763 16.7655 17.075 17.6648C16.1737 18.5641 15.1153 19.2768 13.9 19.8028C12.6847 20.3288 11.3847 20.5911 10 20.5898Z" fill="#F2F2EF"/>
</g>
</g>
<defs>
<clipPath id="clip0_140_635">
<rect width="20" height="20" fill="white" transform="translate(0 0.589844)"/>
</clipPath>
<clipPath id="clip1_140_635">
<rect width="20" height="20" fill="white" transform="translate(0 0.589844)"/>
</clipPath>
</defs>
</svg>
