<svg width="1006" height="708" viewBox="0 0 1006 708" fill="none" xmlns="http://www.w3.org/2000/svg">
<g style="mix-blend-mode:multiply" opacity="0.05">
<path d="M537.309 84.957H70.9717V123.346H537.309V84.957Z" fill="#5C5138"/>
<path d="M699.042 177.472V110.762L1005.52 37.1306L996.716 0L660.65 80.5543V193.206C660.65 258.027 629.815 320.33 578.208 359.98C550.516 381.377 534.157 414.731 534.157 449.342V502.208C534.157 529.267 519.681 553.183 495.762 565.771L442.901 592.835V200.757H537.928C556.183 200.757 571.285 215.861 571.285 234.112V239.147C571.285 257.398 556.183 272.5 537.928 272.5C519.681 272.5 504.576 257.398 504.576 239.147V232.853H466.184V239.147C466.184 278.795 498.284 310.89 537.928 310.89C577.58 310.89 609.677 278.795 609.677 239.147V234.112C609.677 194.464 577.58 162.368 537.928 162.368H71.5954C31.946 162.368 -0.14856 194.464 -0.14856 234.112V239.147C-0.14856 278.795 31.946 310.89 71.5954 310.89C111.245 310.89 143.339 278.795 143.339 239.147V232.853H104.947V239.147C104.947 257.398 89.8451 272.5 71.5954 272.5C53.3458 272.5 38.2388 257.398 38.2388 239.147V234.112C38.2388 215.861 53.3458 200.757 71.5954 200.757H166.622V592.835L113.759 565.771C89.8451 553.183 75.3692 529.267 75.3692 502.208V449.342C75.3692 414.731 59.0076 380.746 31.3176 359.98C-20.2863 320.33 -51.1263 258.027 -51.1263 193.206V80.5543L-387.19 0L-396 37.1306L-89.5137 110.762V177.472L-301.6 126.496L-310.41 163.627L-88.2567 217.12C-85.7376 241.664 -80.0758 265.579 -70.6355 288.236L-216.012 253.622L-224.821 290.752L-46.0907 333.547C-30.9886 355.575 -13.3651 375.082 8.02975 390.817C26.2819 404.66 37.6078 426.688 37.6078 449.973V502.837C37.6078 543.743 60.2671 581.505 96.7689 600.383L305.08 708L513.386 600.383C549.887 581.505 572.542 544.374 572.542 502.837V449.973C572.542 426.688 583.244 404.66 602.125 390.817C623.522 374.456 641.769 354.944 656.245 333.547L834.978 290.752L826.164 253.622L680.787 288.236C690.228 265.579 695.897 241.664 698.406 217.12L920.562 163.627L911.758 126.496L699.042 177.472ZM404.511 612.966L369.267 631.22V201.387H404.511V612.966ZM204.384 201.387H239.623V631.22L204.384 612.966V201.387ZM278.018 650.727V201.387H330.879V650.727L304.446 664.577L278.018 650.727Z" fill="#5C5138"/>
</g>
</svg>
