<svg width="25" height="26" viewBox="0 0 25 26" fill="none" xmlns="http://www.w3.org/2000/svg">
<g clip-path="url(#clip0_140_560)">
<g clip-path="url(#clip1_140_560)">
<path d="M12.5 0.589844C9.18555 0.589844 6.00391 1.90761 3.66211 4.25097C1.31791 6.59527 0.000670798 9.77457 0 13.0898C0 16.4037 1.31836 19.5853 3.66211 21.9287C6.00391 24.272 9.18555 25.5898 12.5 25.5898C15.8145 25.5898 18.9961 24.272 21.3379 21.9287C23.6816 19.5853 25 16.4037 25 13.0898C25 9.77597 23.6816 6.59433 21.3379 4.25097C18.9961 1.90761 15.8145 0.589844 12.5 0.589844Z" fill="url(#paint0_linear_140_560)"/>
<path d="M5.65764 12.9583C9.30217 11.3708 11.7318 10.3243 12.9467 9.81853C16.4193 8.37458 17.1401 8.1238 17.6108 8.11531C17.7143 8.11365 17.9447 8.13923 18.0951 8.26081C18.2201 8.36335 18.2553 8.50203 18.2729 8.59939C18.2885 8.69665 18.31 8.91833 18.2924 9.09138C18.1049 11.0679 17.2904 15.8644 16.8764 18.0783C16.7026 19.015 16.3568 19.329 16.0229 19.3597C15.2963 19.4265 14.7455 18.88 14.0424 18.4193C12.9428 17.698 12.3217 17.2492 11.2533 16.5455C10.019 15.7322 10.8197 15.2851 11.5229 14.5546C11.7065 14.3634 14.9057 11.4542 14.9662 11.1904C14.974 11.1574 14.9818 11.0343 14.9076 10.9695C14.8354 10.9044 14.7279 10.9267 14.6498 10.9443C14.5385 10.9693 12.7826 12.131 9.37639 14.4292C8.87834 14.7718 8.42717 14.9388 8.02092 14.93C7.57561 14.9205 6.71623 14.6777 6.07756 14.4703C5.29631 14.2158 4.67326 14.0812 4.72795 13.649C4.7553 13.424 5.06584 13.1937 5.65764 12.9583Z" fill="white"/>
</g>
</g>
<defs>
<linearGradient id="paint0_linear_140_560" x1="1250" y1="0.589844" x2="1250" y2="2500.59" gradientUnits="userSpaceOnUse">
<stop stop-color="#2AABEE"/>
<stop offset="1" stop-color="#229ED9"/>
</linearGradient>
<clipPath id="clip0_140_560">
<rect width="25" height="25" fill="white" transform="translate(0 0.589844)"/>
</clipPath>
<clipPath id="clip1_140_560">
<rect width="25" height="25" fill="white" transform="translate(0 0.589844)"/>
</clipPath>
</defs>
</svg>
