<svg width="25" height="26" viewBox="0 0 25 26" fill="none" xmlns="http://www.w3.org/2000/svg">
<g clip-path="url(#clip0_140_567)">
<g clip-path="url(#clip1_140_567)">
<path d="M0.533203 12.981C0.532617 15.0884 1.08575 17.1462 2.1375 18.9599L0.432617 25.157L6.80293 23.4941C8.56489 24.449 10.5391 24.9494 12.5452 24.9495H12.5504C19.173 24.9495 24.5639 19.5846 24.5667 12.9904C24.568 9.79507 23.3192 6.79037 21.0502 4.52979C18.7817 2.26941 15.7646 1.02392 12.5499 1.02246C5.92657 1.02246 0.535937 6.38709 0.533203 12.981Z" fill="url(#paint0_linear_140_567)"/>
<path d="M0.104492 12.9773C0.103809 15.1606 0.676758 17.2919 1.76602 19.1706L0 25.5898L6.59873 23.8673C8.41689 24.8542 10.464 25.3746 12.547 25.3753H12.5523C19.4125 25.3753 24.9971 19.8174 25 12.9872C25.0012 9.67705 23.7074 6.56434 21.3574 4.22278C19.0071 1.88151 15.8821 0.591205 12.5523 0.589844C5.69101 0.589844 0.107227 6.14697 0.104492 12.9773ZM4.03428 18.8471L3.78789 18.4577C2.75215 16.8182 2.20547 14.9235 2.20625 12.978C2.2084 7.30088 6.84941 2.68203 12.5563 2.68203C15.3199 2.6832 17.9172 3.75573 19.8707 5.7017C21.8241 7.64786 22.899 10.2349 22.8983 12.9864C22.8958 18.6636 18.2547 23.283 12.5523 23.283H12.5482C10.6915 23.2821 8.87051 22.7857 7.28242 21.8476L6.90449 21.6245L2.98867 22.6465L4.03428 18.8471Z" fill="url(#paint1_linear_140_567)"/>
<path d="M9.44141 7.79807C9.2084 7.28251 8.96318 7.27211 8.7416 7.26307C8.56016 7.25529 8.35273 7.25587 8.14551 7.25587C7.93809 7.25587 7.60107 7.33355 7.31621 7.6432C7.03105 7.95314 6.22754 8.70213 6.22754 10.2255C6.22754 11.7488 7.34209 13.2212 7.49746 13.4279C7.65303 13.6343 9.64912 16.8605 12.8104 18.1016C15.4378 19.133 15.9725 18.9279 16.5427 18.8762C17.113 18.8247 18.3829 18.1274 18.642 17.4044C18.9013 16.6814 18.9013 16.0617 18.8235 15.9323C18.7458 15.8032 18.5384 15.7258 18.2273 15.571C17.9163 15.4162 16.3871 14.667 16.102 14.5637C15.8169 14.4604 15.6096 14.4089 15.4021 14.7189C15.1947 15.0285 14.5991 15.7258 14.4176 15.9323C14.2362 16.1392 14.0547 16.165 13.7437 16.0101C13.4325 15.8548 12.4309 15.5282 11.2425 14.4735C10.3179 13.6527 9.69365 12.6392 9.51221 12.3292C9.33076 12.0196 9.49277 11.8518 9.64873 11.6975C9.78848 11.5588 9.95986 11.336 10.1155 11.1552C10.2706 10.9744 10.3224 10.8454 10.4261 10.6389C10.5299 10.4322 10.4779 10.2513 10.4003 10.0965C10.3224 9.94159 9.71797 8.41027 9.44141 7.79807Z" fill="white"/>
</g>
</g>
<defs>
<linearGradient id="paint0_linear_140_567" x1="1207.14" y1="2414.48" x2="1207.14" y2="1.02246" gradientUnits="userSpaceOnUse">
<stop stop-color="#1FAF38"/>
<stop offset="1" stop-color="#60D669"/>
</linearGradient>
<linearGradient id="paint1_linear_140_567" x1="1250" y1="2500.59" x2="1250" y2="0.589844" gradientUnits="userSpaceOnUse">
<stop stop-color="#F9F9F9"/>
<stop offset="1" stop-color="white"/>
</linearGradient>
<clipPath id="clip0_140_567">
<rect width="25" height="25" fill="white" transform="translate(0 0.589844)"/>
</clipPath>
<clipPath id="clip1_140_567">
<rect width="25" height="25" fill="white" transform="translate(0 0.589844)"/>
</clipPath>
</defs>
</svg>
